<svg xmlns="http://www.w3.org/2000/svg" xmlns:xlink="http://www.w3.org/1999/xlink" version="1.1" width="1000" height="1000" viewBox="0 0 1000 1000" xml:space="preserve">
<desc>Created with Fabric.js 3.5.0</desc>
<defs>
</defs>
<rect x="0" y="0" width="100%" height="100%" fill="#ffffff"/>
<g transform="matrix(7.4024 0 0 7.4024 499.9997 499.9998)" id="Layer_1">
<path style="stroke: none; stroke-width: 1; stroke-dasharray: none; stroke-linecap: butt; stroke-dashoffset: 0; stroke-linejoin: miter; stroke-miterlimit: 4; is-custom-font: none; font-file-url: none; fill: rgb(0,0,0); fill-rule: nonzero; opacity: 1;" transform=" translate(-581.5052, -339.2762)" d="M 548.958862 284.792694 C 570.414673 275.30484 591.274719 274.528381 612.263123 285.455017 C 633.204529 296.357147 644.402771 313.195435 645.183289 336.786652 C 645.475098 345.606964 645.268799 354.442993 645.352234 363.271271 C 645.396484 367.951996 643.877197 372.03656 641.225464 375.84903 C 631.746765 389.477051 619.010498 397.671692 602.315002 399.113739 C 588.569885 400.300964 574.854004 402.087128 560.984985 400.380615 C 547.016663 398.661926 535.364868 392.531799 525.460022 382.767365 C 520.431274 377.809875 518.233215 371.452393 518.016357 364.700684 C 517.541748 349.920135 517.03949 335.169708 520.046204 320.4422 C 523.515259 303.449921 533.480408 292.259644 548.958862 284.792694 M 572.04187 305.396729 C 551.818665 309.211212 542.873169 316.324371 538.222351 339.085754 C 536.789734 346.097351 538.561523 347.849182 545.723206 347.743439 C 564.018005 347.473328 582.314758 347.161194 600.60083 346.562012 C 607.943298 346.321411 615.102234 344.731262 621.659363 341.08197 C 624.157654 339.691559 625.609009 337.923676 624.316467 335.025848 C 621.338623 328.350067 618.878601 321.420593 614.857727 315.246399 C 611.637939 310.302155 607.467468 307.213501 601.309448 306.135376 C 591.829773 304.475616 582.397522 305.53186 572.04187 305.396729 M 605.80896 367.993988 C 607.647522 370.522247 607.588074 373.654785 608.514587 376.473145 C 608.980286 377.890076 609.94519 378.733307 611.494934 378.572662 C 612.808533 378.436493 613.454224 377.546875 613.822266 376.312866 C 615.26825 371.464081 610.64917 362.897186 605.903992 361.648773 C 604.665466 361.322906 603.578613 361.380005 602.825317 362.534912 C 602.167725 363.543152 602.598877 364.452362 603.278992 365.246002 C 603.926819 366.001953 604.645203 366.697479 605.80896 367.993988 M 547.070618 360.854034 C 542.351135 364.318726 542.064636 369.596954 541.573547 374.706543 C 541.409546 376.413239 542.301392 378.13324 544.247742 378.3909 C 546.285217 378.660614 547.390442 377.124176 547.506531 375.370972 C 547.763916 371.484497 549.013428 367.90329 550.250671 364.28009 C 551.00592 362.068329 550.123108 360.735474 547.070618 360.854034 M 560.379395 372.19931 C 560.302795 374.670349 560.122864 377.144226 560.189697 379.611359 C 560.227539 381.007904 561.000549 382.282867 562.527954 382.404266 C 564.266846 382.542511 565.295166 381.367981 565.592896 379.756378 C 566.04248 377.323029 566.543701 374.86496 566.615295 372.405548 C 566.689087 369.871857 569.308105 365.990662 565.362732 365.132996 C 561.40509 364.272705 561.777039 368.930328 560.379395 372.19931 M 624.650269 362.533356 C 623.014221 359.165375 620.495605 356.632477 617.238525 354.841461 C 615.985657 354.152557 614.660217 354.040649 613.73175 355.388336 C 612.940247 356.53717 613.353149 357.678925 614.3349 358.448669 C 616.612915 360.234833 617.873657 362.733459 619.341492 365.11026 C 620.21991 366.532471 621.316406 367.998352 623.28064 367.223999 C 625.09552 366.508484 625.550293 364.983002 624.650269 362.533356 z" stroke-linecap="round"/>
</g>
<g transform="matrix(7.4024 0 0 7.4024 614.5065 400.4968)" id="Layer_1">
<path style="stroke: none; stroke-width: 1; stroke-dasharray: none; stroke-linecap: butt; stroke-dashoffset: 0; stroke-linejoin: miter; stroke-miterlimit: 4; is-custom-font: none; font-file-url: none; fill: rgb(0,0,0); fill-rule: nonzero; opacity: 1;" transform=" translate(-596.9741, -328.496)" d="M 598.050781 336.386169 C 593.633423 340.313904 589.571045 337.147675 585.862915 335.40567 C 582.532715 333.841156 582.794983 329.749207 582.887268 326.548004 C 582.993774 322.853516 585.991638 321.357605 589.106506 320.256805 C 591.176208 319.525299 593.245178 319.180359 595.459167 319.49292 C 600.628967 320.222809 605.725464 323.902435 611.106628 318.72348 C 610.754822 325.056122 610.026123 325.250336 596.030884 323.808411 C 596.493591 327.335846 596.43457 330.794495 593.816895 333.412018 C 594.661072 335.517609 597.144287 334.411224 598.050781 336.386169 z" stroke-linecap="round"/>
</g>
<g transform="matrix(7.4024 0 0 7.4024 342.8395 420.8205)" id="Layer_1">
<path style="stroke: none; stroke-width: 1; stroke-dasharray: none; stroke-linecap: butt; stroke-dashoffset: 0; stroke-linejoin: miter; stroke-miterlimit: 4; is-custom-font: none; font-file-url: none; fill: rgb(0,0,0); fill-rule: nonzero; opacity: 1;" transform=" translate(-560.2742, -331.2415)" d="M 569.635132 322.058594 C 575.12262 329.032379 571.589783 338.266327 562.316711 341.7659 C 560.20874 338.726562 563.712158 338.028931 564.41687 336.691406 C 560.923584 330.402191 555.775818 326.818848 548.308655 327.557678 C 548.765015 326.029968 548.779846 325.512115 548.959595 325.446655 C 554.378052 323.47226 560.307373 323.416077 565.622742 320.950806 C 566.775818 320.415985 568.260376 320.805176 569.635132 322.058594 z" stroke-linecap="round"/>
</g>
</svg>